<svg width="500" height="334" viewBox="0 0 500 334" fill="none" xmlns="http://www.w3.org/2000/svg">
<g clip-path="url(#clip0)">
<path d="M327.396 280.702L238.243 248.948V248.499H236.983H89.6689H89.6312L0 280.702H0.257883V289.289H327.654V280.702H327.396Z" fill="#929292"/>
<path d="M389.814 333.533C450.668 333.533 500 329.511 500 324.55C500 319.589 450.668 315.568 389.814 315.568C328.961 315.568 279.629 319.589 279.629 324.55C279.629 329.511 328.961 333.533 389.814 333.533Z" fill="#E6E6E6"/>
<path d="M333.357 162.697L327.835 167.876C327.835 167.876 312.873 180.077 319.818 184.553C326.763 189.029 334.506 171.083 334.506 171.083L337.49 166.453L333.357 162.697Z" fill="#9F616A"/>
<path d="M365.362 73.6736L357.559 75.5097C357.559 75.5097 355.723 83.3132 356.182 90.6576C356.641 98.002 354.385 111.633 354.385 111.633L349.094 123.94L326.937 165.859L340.71 171.847L365.362 123.707L367.658 92.9527L365.362 73.6736Z" fill="#E6E6E6"/>
<path d="M376.965 51.8699C390.458 51.8699 401.396 40.2584 401.396 25.9349C401.396 11.6115 390.458 0 376.965 0C363.471 0 352.533 11.6115 352.533 25.9349C352.533 40.2584 363.471 51.8699 376.965 51.8699Z" fill="#2F2E41"/>
<path d="M398.642 65.1817C405.74 65.1817 411.494 59.4273 411.494 52.3289C411.494 45.2306 405.74 39.4762 398.642 39.4762C391.543 39.4762 385.789 45.2306 385.789 52.3289C385.789 59.4273 391.543 65.1817 398.642 65.1817Z" fill="#2F2E41"/>
<path d="M389.691 35.1154L396.576 53.0175L379.133 60.3621L377.602 56.8908L372.248 44.7551L389.691 35.1154Z" fill="#9F616A"/>
<path d="M413.101 133.347L419.527 163.643L428.249 231.578L421.823 293.547C421.823 293.547 402.544 299.973 395.199 288.039L403.921 237.087L386.478 176.954L383.723 236.169L388.314 287.58C388.314 287.58 374.084 295.842 362.608 287.58L354.805 185.676C354.805 185.676 348.838 141.15 362.608 126.462L413.101 133.347Z" fill="#2F2E41"/>
<path d="M375.92 46.8206C384.413 46.8206 391.297 39.9359 391.297 31.4432C391.297 22.9506 384.413 16.0659 375.92 16.0659C367.427 16.0659 360.543 22.9506 360.543 31.4432C360.543 39.9359 367.427 46.8206 375.92 46.8206Z" fill="#9F616A"/>
<path d="M375.92 61.2799L377.424 56.4873C377.424 56.4873 391.278 54.205 395.304 49.7095L402.544 57.1487C402.544 57.1487 422.282 63.5751 425.036 66.3292C427.79 69.0834 414.019 111.773 414.019 111.773C414.019 111.773 417.232 119.117 411.724 122.33C411.724 122.33 419.987 134.724 413.56 136.101C407.134 137.478 360.772 127.839 360.772 127.839C360.772 127.839 357.559 122.33 364.904 120.035C364.904 120.035 362.149 113.609 365.363 111.314C368.576 109.019 365.822 96.1659 365.822 96.1659C365.822 96.1659 356.182 76.8868 357.559 75.5097C358.936 74.1327 375.92 61.2799 375.92 61.2799Z" fill="#E6E6E6"/>
<path d="M420.905 173.741L420.446 177.413C420.446 177.413 420.905 199.447 412.642 198.529C404.38 197.611 409.429 176.036 409.429 176.036L410.806 170.987L420.905 173.741Z" fill="#9F616A"/>
<path d="M410.806 289.416C410.806 289.416 408.97 307.777 412.183 309.154C415.396 310.531 436.971 322.006 430.544 327.056C424.118 332.105 402.544 318.793 400.248 321.088C397.953 323.383 390.609 321.547 390.15 317.416C389.691 313.285 390.609 305.941 394.281 301.35C397.953 296.76 397.953 287.58 397.953 287.58L410.806 289.416Z" fill="#2F2E41"/>
<path d="M384.642 282.53L387.855 297.678C387.855 297.678 394.74 312.826 388.773 316.039C382.805 319.252 381.887 319.711 381.428 321.547C380.969 323.384 368.576 333.023 364.903 325.679C361.231 318.334 374.543 307.777 374.543 307.777L376.838 302.727L374.543 284.825L384.642 282.53Z" fill="#2F2E41"/>
<path d="M363.351 29.7567C373.016 23.3072 375.906 21.7655 386.984 24.2567L387.649 8.09448L359.02 14.1001L363.351 29.7567Z" fill="#2F2E41"/>
<path d="M420.905 66.7882L425.495 66.3292C425.495 66.3292 430.085 78.2639 430.085 84.2312V123.707L422.741 175.577L408.511 173.282L416.314 126.921L414.019 98.92L420.905 66.7882Z" fill="#E6E6E6"/>
<path d="M471.256 140.109H463.471V322.754H471.256V140.109Z" fill="#3F3D56"/>
<path d="M488.922 89.2079H445.805V146.696H488.922V89.2079Z" fill="#3F3D56"/>
<path d="M482.334 124.539C482.056 124.545 481.785 124.636 481.56 124.8L479.106 104.762C479.005 103.94 478.608 103.184 477.988 102.635C477.368 102.086 476.568 101.783 475.74 101.783H458.986C458.159 101.783 457.359 102.086 456.739 102.635C456.119 103.184 455.721 103.94 455.621 104.762L453.167 124.8C452.942 124.636 452.671 124.545 452.393 124.539C451.07 124.539 449.997 126.684 449.997 129.33C449.997 131.976 451.07 134.121 452.393 134.121C453.398 134.121 454.257 132.881 454.612 131.126H480.115C480.47 132.881 481.329 134.121 482.334 134.121C483.657 134.121 484.73 131.976 484.73 129.33C484.73 126.684 483.657 124.539 482.334 124.539ZM459.579 125.737C458.986 125.737 458.408 125.561 457.915 125.232C457.423 124.903 457.039 124.436 456.812 123.888C456.586 123.341 456.526 122.739 456.642 122.159C456.757 121.578 457.043 121.044 457.461 120.625C457.88 120.207 458.414 119.922 458.994 119.806C459.575 119.691 460.177 119.75 460.724 119.976C461.272 120.203 461.739 120.587 462.068 121.079C462.397 121.572 462.573 122.15 462.573 122.743C462.573 123.136 462.495 123.525 462.345 123.889C462.194 124.252 461.974 124.582 461.696 124.86C461.418 125.138 461.088 125.358 460.724 125.509C460.361 125.659 459.972 125.737 459.579 125.737ZM474.549 125.737C473.957 125.737 473.378 125.561 472.886 125.232C472.394 124.903 472.01 124.436 471.783 123.889C471.557 123.341 471.497 122.739 471.613 122.159C471.728 121.578 472.014 121.044 472.432 120.625C472.851 120.207 473.385 119.922 473.965 119.806C474.546 119.691 475.148 119.75 475.695 119.976C476.242 120.203 476.71 120.587 477.039 121.079C477.368 121.572 477.544 122.15 477.544 122.743C477.544 123.136 477.466 123.525 477.316 123.889C477.165 124.252 476.945 124.582 476.667 124.86C476.389 125.138 476.059 125.358 475.695 125.509C475.332 125.659 474.943 125.737 474.549 125.737ZM478.142 114.298C478.142 114.542 478.094 114.783 478.001 115.009C477.908 115.234 477.771 115.439 477.598 115.611C477.426 115.784 477.221 115.921 476.996 116.014C476.77 116.107 476.529 116.156 476.285 116.156H458.442C458.198 116.156 457.957 116.107 457.731 116.014C457.506 115.921 457.301 115.784 457.129 115.611C456.956 115.439 456.819 115.234 456.726 115.009C456.632 114.783 456.584 114.542 456.584 114.298V108.432C456.584 108.188 456.632 107.946 456.726 107.721C456.819 107.496 456.956 107.291 457.129 107.118C457.301 106.946 457.506 106.809 457.731 106.716C457.957 106.622 458.198 106.574 458.442 106.574H476.285C476.529 106.574 476.77 106.622 476.996 106.716C477.221 106.809 477.426 106.946 477.598 107.118C477.771 107.291 477.908 107.496 478.001 107.721C478.094 107.946 478.142 108.188 478.142 108.432V114.298Z" fill="#AEBED9"/>
<path d="M320.421 160.335L322.168 163.731C322.184 163.762 322.187 163.799 322.177 163.832C322.166 163.866 322.142 163.894 322.111 163.91L322.027 163.953L331.129 181.64C331.381 182.13 331.428 182.699 331.26 183.223C331.092 183.747 330.723 184.183 330.234 184.435L319.182 190.123C318.94 190.248 318.675 190.323 318.404 190.346C318.132 190.368 317.859 190.337 317.599 190.254C317.34 190.171 317.099 190.037 316.891 189.861C316.683 189.685 316.512 189.469 316.388 189.227L307.604 172.161L307.543 172.192C307.521 172.203 307.495 172.206 307.472 172.198C307.448 172.191 307.428 172.174 307.417 172.152L306.422 170.22C306.416 170.209 306.413 170.197 306.412 170.184C306.411 170.172 306.412 170.16 306.416 170.148C306.42 170.136 306.426 170.125 306.434 170.116C306.442 170.106 306.452 170.098 306.463 170.093L306.524 170.061L306.149 169.334L306.088 169.365C306.064 169.377 306.037 169.379 306.012 169.371C305.988 169.363 305.967 169.346 305.955 169.322L304.974 167.416C304.962 167.393 304.96 167.366 304.968 167.341C304.976 167.317 304.993 167.296 305.017 167.284L305.078 167.252L304.567 166.259L304.504 166.291C304.494 166.296 304.483 166.299 304.471 166.3C304.46 166.301 304.449 166.3 304.438 166.297C304.427 166.293 304.417 166.287 304.408 166.28C304.399 166.273 304.392 166.264 304.387 166.253L303.851 165.213C303.841 165.193 303.839 165.169 303.846 165.147C303.853 165.124 303.868 165.106 303.889 165.095L303.951 165.063L302.867 162.957C302.616 162.468 302.569 161.899 302.736 161.375C302.904 160.85 303.274 160.415 303.763 160.163L314.814 154.475C315.304 154.223 315.873 154.176 316.397 154.344C316.921 154.512 317.357 154.881 317.609 155.37L320.157 160.321L320.242 160.278C320.273 160.262 320.31 160.259 320.343 160.27C320.377 160.28 320.405 160.304 320.421 160.335Z" fill="#3F3D56"/>
<path d="M316.913 156.19L330.324 182.248C330.484 182.558 330.514 182.92 330.407 183.252C330.301 183.585 330.066 183.861 329.756 184.021L319.177 189.465C319.023 189.545 318.855 189.593 318.683 189.608C318.511 189.622 318.337 189.602 318.172 189.55C318.008 189.497 317.855 189.412 317.723 189.3C317.591 189.188 317.483 189.052 317.404 188.898L303.993 162.84C303.914 162.686 303.866 162.518 303.851 162.346C303.837 162.173 303.857 162 303.91 161.835C303.962 161.671 304.047 161.518 304.159 161.386C304.271 161.254 304.407 161.145 304.561 161.066L306.144 160.251L306.249 160.455C306.381 160.71 306.608 160.903 306.882 160.991C307.156 161.079 307.453 161.054 307.709 160.922L313.089 158.153C313.345 158.022 313.538 157.794 313.626 157.52C313.714 157.246 313.689 156.949 313.557 156.693L313.453 156.49L315.14 155.622C315.294 155.543 315.462 155.494 315.634 155.48C315.806 155.466 315.98 155.486 316.145 155.538C316.309 155.591 316.462 155.676 316.594 155.788C316.726 155.899 316.834 156.036 316.913 156.19Z" fill="#AEBED9"/>
<path d="M220.644 221.005C219.588 221.027 218.565 221.372 217.711 221.993L208.42 146.118C208.039 143.006 206.533 140.141 204.185 138.064C201.838 135.986 198.811 134.839 195.676 134.839H132.236C129.101 134.839 126.074 135.986 123.727 138.064C121.379 140.141 119.873 143.006 119.492 146.118L110.201 221.993C109.347 221.372 108.324 221.027 107.268 221.005C102.259 221.005 98.1978 229.127 98.1978 239.145C98.1978 249.164 102.259 257.285 107.268 257.285C111.073 257.285 114.326 252.593 115.673 245.948H212.239C213.586 252.593 216.839 257.285 220.644 257.285C225.654 257.285 229.714 249.164 229.714 239.145C229.714 229.127 225.654 221.005 220.644 221.005ZM134.478 225.54C132.236 225.54 130.044 224.875 128.179 223.629C126.315 222.383 124.862 220.613 124.004 218.541C123.145 216.469 122.921 214.19 123.358 211.99C123.796 209.791 124.876 207.771 126.461 206.185C128.047 204.6 130.067 203.52 132.266 203.083C134.466 202.645 136.745 202.87 138.817 203.728C140.889 204.586 142.659 206.039 143.905 207.904C145.151 209.768 145.816 211.96 145.816 214.202C145.816 215.691 145.523 217.166 144.953 218.541C144.383 219.917 143.548 221.166 142.495 222.219C141.442 223.272 140.192 224.107 138.817 224.677C137.441 225.247 135.967 225.54 134.478 225.54ZM191.166 225.54C188.924 225.54 186.732 224.875 184.867 223.629C183.003 222.383 181.55 220.613 180.692 218.541C179.834 216.469 179.609 214.19 180.047 211.99C180.484 209.791 181.564 207.771 183.149 206.185C184.735 204.6 186.755 203.52 188.954 203.083C191.154 202.645 193.433 202.87 195.505 203.728C197.577 204.586 199.347 206.039 200.593 207.904C201.839 209.768 202.504 211.96 202.504 214.202C202.504 215.691 202.211 217.166 201.641 218.541C201.071 219.917 200.236 221.166 199.183 222.219C198.13 223.272 196.881 224.107 195.505 224.677C194.129 225.247 192.655 225.54 191.166 225.54ZM204.771 182.225C204.771 183.149 204.59 184.063 204.236 184.917C203.882 185.77 203.364 186.546 202.711 187.199C202.058 187.852 201.282 188.371 200.429 188.724C199.575 189.078 198.661 189.26 197.737 189.26H130.175C129.251 189.26 128.337 189.078 127.483 188.724C126.63 188.371 125.854 187.852 125.201 187.199C124.548 186.546 124.03 185.77 123.676 184.917C123.323 184.063 123.141 183.149 123.141 182.225V160.014C123.141 159.09 123.323 158.175 123.676 157.322C124.03 156.468 124.548 155.693 125.201 155.04C125.854 154.386 126.63 153.868 127.483 153.515C128.337 153.161 129.251 152.979 130.175 152.979H197.737C198.661 152.979 199.575 153.161 200.429 153.515C201.282 153.868 202.058 154.386 202.711 155.04C203.364 155.693 203.882 156.468 204.236 157.322C204.59 158.175 204.771 159.09 204.771 160.014V182.225Z" fill="#3F3D56"/>
<path d="M175.832 138.428H152.08L157.17 130.794H170.742L175.832 138.428Z" fill="#AEBED9"/>
<path d="M161.076 119.807C175.782 119.807 187.703 107.886 187.703 93.1799C187.703 78.4741 175.782 66.5527 161.076 66.5527C146.37 66.5527 134.449 78.4741 134.449 93.1799C134.449 107.886 146.37 119.807 161.076 119.807Z" fill="#AEBED9"/>
<path d="M158.539 104.42L150.569 94.1728L155.204 90.5681L158.977 95.42L171.725 81.9628L175.988 86.0017L158.539 104.42Z" fill="white"/>
<path d="M166.367 248H161V251.22H166.367V248Z" fill="white"/>
<path d="M166.367 278.95H161V272.018H166.367V278.95ZM166.367 265.085H161V258.153H166.367V265.085Z" fill="white"/>
<path d="M166.367 285.882H161V289.103H166.367V285.882Z" fill="white"/>
</g>
<defs>
<clipPath id="clip0">
<path d="M0 0H470C486.569 0 500 13.4315 500 30V303.533C500 320.101 486.569 333.533 470 333.533H0V0Z" fill="white"/>
</clipPath>
</defs>
</svg>
