<svg width="150" height="150" viewBox="0 0 150 150" fill="none" xmlns="http://www.w3.org/2000/svg">
<rect width="150" height="150" rx="75" fill="#AEBED9"/>
<g clip-path="url(#clip0)">
<path d="M74.5724 73.9023C78.5431 73.9023 81.9814 72.4782 84.7906 69.6684C87.5999 66.8591 89.024 63.4218 89.024 59.4507C89.024 55.481 87.5999 52.0432 84.7902 49.2329C81.9804 46.4241 78.5426 45 74.5724 45C70.6013 45 67.164 46.4241 64.3547 49.2334C61.5454 52.0427 60.1208 55.4805 60.1208 59.4507C60.1208 63.4218 61.5454 66.8596 64.3552 69.6689C67.1649 72.4777 70.6027 73.9023 74.5724 73.9023Z" fill="#F2F2F2"/>
<path d="M99.8589 91.1371C99.7778 89.968 99.614 88.6927 99.3727 87.3459C99.1292 85.9891 98.8156 84.7065 98.4402 83.5341C98.0525 82.3224 97.5252 81.1258 96.8733 79.9791C96.1967 78.7889 95.4021 77.7526 94.5103 76.8998C93.5779 76.0076 92.4362 75.2903 91.116 74.767C89.8004 74.2466 88.3424 73.9829 86.7828 73.9829C86.1703 73.9829 85.578 74.2342 84.4341 74.979C83.73 75.4381 82.9065 75.9691 81.9873 76.5564C81.2013 77.0572 80.1366 77.5264 78.8214 77.9512C77.5383 78.3664 76.2355 78.577 74.9496 78.577C73.6638 78.577 72.3615 78.3664 71.077 77.9512C69.7632 77.5269 68.6984 77.0577 67.9134 76.5569C67.0029 75.9751 66.1789 75.4441 65.4643 74.9785C64.3217 74.2337 63.7289 73.9824 63.1165 73.9824C61.5564 73.9824 60.0989 74.2466 58.7837 74.7675C57.4644 75.2898 56.3223 76.0071 55.3889 76.9002C54.4977 77.7535 53.7025 78.7894 53.0269 79.9791C52.3755 81.1258 51.8481 82.322 51.46 83.5346C51.0851 84.7069 50.7715 85.9891 50.528 87.3459C50.2867 88.6908 50.1228 89.9666 50.0418 91.1385C49.9622 92.2866 49.9219 93.4781 49.9219 94.6816C49.9219 97.8136 50.9175 100.349 52.8809 102.219C54.8199 104.064 57.3857 105 60.5058 105H89.3962C92.5163 105 95.0812 104.065 97.0207 102.219C98.9845 100.351 99.9802 97.8145 99.9802 94.6811C99.9797 93.4722 99.939 92.2797 99.8589 91.1371Z" fill="#F2F2F2"/>
</g>
<defs>
<clipPath id="clip0">
<rect x="45" y="45" width="60" height="60.0002" rx="30" fill="white"/>
</clipPath>
</defs>
</svg>
